PathFileType	4	(X/Y/Z)	KinectSkeleton.trc																																																	
DataRate	CameraRate	NumFrames	NumMarkers	Units	OrigDataRate	OrigDataStartFrame	OrigNumFrames																																													
60	60	17	17	mm	60	1	300																																													
Frame#	Time	Neck			ShoulderMid			R.Shoulder			L.Shoulder			R.Elbow			L.Elbow			R.Wrist			L.Wrist			HipCenter			R.Hip			L.Hip			R.Knee			L.Knee			R.Ankle			L.Ankle			R.Foot			L.Foot		
		X1	Y1	Z1	X2	Y2	Z2	X3	Y3	Z3	X4	Y4	Z4	X5	Y5	Z5	X6	Y6	Z6	X7	Y7	Z7	X8	Y8	Z8	X9	Y9	Z9	X10	Y10	Z10	X11	Y11	Z11	X12	Y12	Z12	X13	Y13	Z13	X14	Y14	Z14	X15	Y15	Z15	X16	Y16	Z16	X17	Y17	Z17
																																																				
1	0.057	-2383.113	1552.721	641.993	-2383.113	1552.721	641.993	-2427.443	1446.125	786.388	-2297.135	1468.587	481.669	-2392.777	1172.005	899.575	-2283.017	1200.89	363.291	-2200.9	1028.02	966.556	-2127.714	1031.134	450.226	-2358.159	985.438	593.225	-2439.409	976.755	623.647	-2268.056	995.067	559.489	-2425.037	558.408	555.693	-2163.29	588.278	620.917	-2416.304	192.723	370.522	-2146.031	195.738	519.805	-2391.279	37.993	464.546	-2079.886	65.047	654.01
2	0.119	-2401.935	1575.863	653.642	-2401.935	1575.863	653.642	-2435.727	1473.827	804.592	-2326.668	1496.27	485.333	-2386.178	1219.022	954.34	-2414.44	1249.45	351.628	-2283.331	1025.599	1074.742	-2348.471	1012.259	369.605	-2362.782	1007.463	600.063	-2441.253	996.307	637.153	-2275.76	1019.835	558.93	-2421.055	572.221	607.264	-2137.348	628.149	653.611	-2426.75	213.382	405.975	-2129.32	238.264	536.418	-2391.864	55.704	492.996	-2048.684	98.356	653.37
3	0.183	-2396.638	1573.939	666.727	-2396.638	1573.939	666.727	-2427.982	1473.404	815.076	-2321.608	1500.729	499.603	-2379.877	1222.896	962.697	-2400.333	1259.491	360.781	-2277.483	1032.965	1080.509	-2340.271	1024.27	360.434	-2359.346	1015.525	606.689	-2435.809	1004.467	644.609	-2274.552	1027.788	564.636	-2412.328	586.555	641.682	-2123.601	651.025	668.808	-2423.025	234.761	441.955	-2117.577	268.575	550.199	-2387.338	78.819	525.364	-2034.072	130.923	662.135
4	0.243	-2383.401	1568.959	672.74	-2383.401	1568.959	672.74	-2391.068	1479.611	833.976	-2329.719	1512.344	492.101	-2371.807	1215.082	968.337	-2390.127	1245.589	390.413	-2243.627	1040.943	1089.807	-2312.317	1014.008	373.169	-2349.151	1004.926	634.028	-2408.979	1000.718	696.806	-2282.804	1009.593	564.411	-2416.276	579.646	665.799	-2203.208	594.458	559.106	-2490.132	205.517	520.06	-2153.768	194.265	534.279	-2410.428	56.798	588.289	-2001.669	114.24	632.23
5	0.319	-2306.492	1543.33	664.449	-2306.492	1543.33	664.449	-2312.09	1482.002	516.838	-2311.012	1474.223	819.69	-2324.756	1261.919	383.096	-2331.566	1256.768	947.475	-2474.594	1111.028	415.358	-2478.638	1104.672	928.826	-2281.917	1054.41	651.79	-2282.166	1056.446	576.524	-2281.64	1052.151	735.258	-2523.562	781.288	565.387	-2503.849	764.791	685.812	-2406.2	447.544	579.121	-2369.565	443.655	645.922	-2506.643	325.898	573.957	-2470.866	307.048	623.397
6	0.374	-2360.759	1539.325	717.921	-2360.759	1539.325	717.921	-2385.833	1454.425	876.407	-2306.564	1467.09	546.503	-2371.434	1181.931	976.863	-2388.089	1218.092	433.39	-2164.879	1057.597	1003.466	-2308.732	992.247	441.552	-2267.482	992.074	704.306	-2295.661	984.792	784.073	-2236.232	1000.149	615.847	-2251.153	574.305	775.548	-2135.198	600.427	585.26	-2316.1	184.829	716.372	-2166.77	208.169	549.959	-2205.873	50.178	753.82	-2027.839	74.361	564.87
7	0.436	-2362.748	1563.237	753.462	-2362.748	1563.237	753.462	-2357.17	1471.54	912.574	-2317.083	1498.783	573.521	-2317.766	1207.284	1039.576	-2365.204	1249.973	431.847	-2112.415	1073.986	1070.483	-2222.549	1052.553	439.254	-2294.897	1002.487	746.223	-2357.744	996.098	805.146	-2225.202	1009.573	680.879	-2335.975	582.362	735.319	-2111.406	606.984	637.515	-2331.231	187.361	640.727	-2118.361	215.956	544.632	-2240.115	55.14	724.444	-1975.959	91.91	600.079
8	0.509	-2361.583	1566.949	757.157	-2361.583	1566.949	757.157	-2359.38	1475.793	917.405	-2317.542	1499.637	576.829	-2340.752	1209.686	1047.792	-2363.875	1238.082	457	-2152.982	1053.636	1089.43	-2212.281	1047.439	479.214	-2296.728	1003.722	749.467	-2359.927	997.319	808.481	-2226.643	1010.822	684.023	-2344.568	584.101	725.731	-2108.986	605.813	665.55	-2346.123	191.039	617.493	-2092.629	210.177	588.237	-2259.162	54.124	699.515	-1959.046	88.553	668.17
9	0.583	-2356.036	1567.389	793.308	-2356.036	1567.389	793.308	-2322.231	1495.585	626.733	-2375.99	1486.187	972.159	-2370.48	1226.638	510.192	-2347.262	1225.508	1099.506	-2552.466	1065.464	462.188	-2270.329	1029.531	1224.201	-2340.896	1000.088	802.287	-2332.604	998.273	715.959	-2350.092	1002.101	898.022	-2386.101	581.555	677.452	-2496.093	605.786	898.946	-2253.1	195.963	677.165	-2327.191	239.713	879.287	-2357.261	55.556	627.14	-2430.427	71.515	868.595
10	0.633	-2349.033	1556.75	797.061	-2349.033	1556.75	797.061	-2320.827	1490.954	630.715	-2370.971	1475.355	971.497	-2373.112	1226.236	519.352	-2345.906	1229.708	1116.774	-2547.888	1062.673	474.731	-2315.443	1027.15	1242.711	-2338.071	999.151	799.489	-2329.393	997.79	714.701	-2347.696	1000.661	893.516	-2487.042	614.863	734.629	-2413.145	613.433	759.262	-2226.992	328.647	840.034	-2294.68	237.633	713.785	-2302.146	166.683	832.96	-2442.934	113.075	698.736
11	0.708	-2354.806	1537.417	801.237	-2354.806	1537.417	801.237	-2367.442	1457.514	965.567	-2325.532	1463.18	626.65	-2372.304	1188.006	1076.183	-2370.626	1197.242	531.706	-2229.893	993.541	1107.372	-2264.598	982.005	537.524	-2364.858	984.298	853.494	-2376.661	996.091	936.926	-2351.769	971.22	760.972	-2417.424	584.51	950.466	-2353.885	558.031	731.229	-2479.291	189.257	952.817	-2369.033	163.63	700.234	-2358.181	62.367	985.113	-2222.683	37.281	714.307
12	0.772	-2355.409	1526.912	821.309	-2355.409	1526.912	821.309	-2356.328	1443.664	983.275	-2328.161	1460.147	644.272	-2366.421	1180.656	1106.062	-2371.604	1200.903	534.028	-2219.383	989.293	1127.339	-2249.409	995.275	538.533	-2364.745	974.677	860.113	-2376.998	985.008	943.396	-2351.157	963.22	767.755	-2424.424	577.84	897.411	-2370.665	550.832	776.267	-2499.005	190.102	841.447	-2419.89	159.309	781.537	-2378.919	60.422	860.713	-2280.715	25.256	780.693
13	0.832	-2405.631	1544.751	822.513	-2405.631	1544.751	822.513	-2474.185	1459.797	974.783	-2313.954	1457.67	667.441	-2449.043	1190.609	1106.681	-2380.824	1200.07	539.64	-2269.067	1037.401	1190.948	-2341.723	955.442	534.24	-2387.088	973.291	864.756	-2469.562	971.341	894.934	-2295.628	975.452	831.289	-2453.844	544.492	885.57	-2178.796	593.241	983.585	-2440.986	134.144	840.178	-2223.134	215.564	833.679	-2421.816	1.65	966.617	-2190.385	38.043	920.119
14	0.906	-2407.303	1539.133	826.027	-2407.303	1539.133	826.027	-2462.305	1455.345	988.782	-2322.144	1457.263	661.574	-2375.956	1208.948	1148.774	-2378.984	1189.722	537.052	-2242.689	1030.975	1274.503	-2324.167	943.927	522.865	-2387.97	957.435	880.742	-2468.399	959.699	919.75	-2298.777	954.925	837.484	-2464.459	524.968	908.311	-2208.463	532.563	892.243	-2468.75	109.525	843.733	-2220.401	123.836	815.303	-2428.89	-31.693	960.37	-2142.523	-27.565	927.196
15	0.955	-2379.691	1504.79	819.879	-2379.691	1504.79	819.879	-2408.328	1437.658	988.438	-2323.668	1445.122	646.967	-2360.385	1199.385	1156.621	-2377.991	1185.993	528.452	-2270.363	1009.8	1285.996	-2277.203	965.043	511.212	-2373.458	946.017	894.808	-2443.949	955.755	943.65	-2295.287	935.219	840.645	-2470.945	537.719	916.594	-2196.21	538.701	938.377	-2506.325	137.725	857.808	-2239.825	143.7	880.38	-2450.244	-4.345	954.792	-2159.088	-13.508	966.625
16	1.017	-2378.443	1502.903	801.707	-2378.443	1502.903	801.707	-2387.747	1441.835	974.744	-2329.963	1432.874	628.773	-2382.799	1183.031	1120.915	-2371.594	1159.63	535.375	-2278.729	975.556	1208.162	-2301.917	925.04	526.804	-2379.303	944.269	899.959	-2446.875	956.438	953.076	-2304.368	930.773	841.053	-2466.592	534.873	965.307	-2160.661	547.511	946.401	-2497.874	128.493	943.224	-2215.44	149.865	901.266	-2437.301	-10.59	1043.728	-2129.11	-7.529	984.292
17	1.092	-2372.364	1496.015	798.55	-2372.364	1496.015	798.55	-2400.978	1432.743	970.504	-2332.763	1425.641	623.163	-2399.593	1168.413	1105.919	-2375.475	1146.838	549.615	-2306.044	993.349	1254.169	-2315.935	911.258	521.167	-2333.439	943.998	903.746	-2391.195	959.888	966.464	-2269.39	926.376	834.193	-2419.783	542.267	1018.496	-2176.353	517.527	884.214	-2505.541	145.08	983.909	-2237.147	119.228	861.294	-2422.853	5.675	1066.269	-2106.036	-13.235	926.958
